<svg id="Mástil" xmlns="http://www.w3.org/2000/svg" viewBox="0 0 812.27 218.94"><defs><style>.cls-1{fill:none;}.cls-1,.cls-3{stroke:#1d1d1b;stroke-miterlimit:10;}.cls-16,.cls-2,.cls-3,.cls-7{fill:#1d1d1b;}.cls-10,.cls-11,.cls-12,.cls-13,.cls-14,.cls-15,.cls-4,.cls-5,.cls-6,.cls-7,.cls-8,.cls-9{font-size:21px;}.cls-4{fill:#662483;}.cls-10,.cls-11,.cls-12,.cls-13,.cls-14,.cls-15,.cls-16,.cls-4,.cls-5,.cls-6,.cls-7,.cls-8,.cls-9{font-family:Elephant-Regular, Elephant;}.cls-5{fill:#c3d442;}.cls-6{fill:#3aaa35;}.cls-8{fill:#706f6f;}.cls-9{fill:#009fe3;}.cls-10{fill:#294294;}.cls-11{fill:#063;}.cls-12{fill:#e6007e;}.cls-13{fill:#a3195b;}.cls-14{fill:#f39200;}.cls-15{fill:#e94e1b;}.cls-16{font-size:11px;}</style></defs><title>notas sobre el mastil de la guitarra</title><g id="Base"><line class="cls-1" x1="29.67" y1="31.75" x2="811.77" y2="31.75"/><line class="cls-1" x1="29.67" y1="66.84" x2="811.77" y2="66.84"/><line class="cls-1" x1="29.67" y1="101.92" x2="811.77" y2="101.92"/><line class="cls-1" x1="29.67" y1="137" x2="811.77" y2="137"/><line class="cls-1" x1="29.32" y1="172.09" x2="811.43" y2="172.09"/><path class="cls-1" d="M44.67,402.34h0Z" transform="translate(-15.01 -195.16)"/><path class="cls-2" d="M44.67,226.92q1.53,5.48,2.76,11t2.29,11c-.1,7.31,0,14.62,0,21.93V380.41c-.74,3.65-1.47,7.31-2.32,11l-1.27,5.48c-.47,1.83-.9,3.65-1.41,5.48-.51-1.83-.94-3.65-1.41-5.48L42,391.37c-.84-3.65-1.58-7.31-2.32-11V270.77c0-7.31,0-14.62,0-21.93q1.05-5.48,2.29-11T44.67,226.92Z" transform="translate(-15.01 -195.16)"/><line class="cls-1" x1="811.77" y1="31.75" x2="811.77" y2="207.17"/><line class="cls-1" x1="420.38" y1="207.17" x2="420.38" y2="31.75"/><line class="cls-1" x1="224.05" y1="31.95" x2="225.99" y2="207.37"/><line class="cls-1" x1="291.58" y1="207.17" x2="291.1" y2="31.75"/><line class="cls-1" x1="353.46" y1="207.17" x2="353.46" y2="31.75"/><line class="cls-1" x1="160.87" y1="208.13" x2="159.9" y2="32.71"/><line class="cls-1" x1="95.27" y1="208.51" x2="94.3" y2="33.09"/><line class="cls-1" x1="616.08" y1="207.17" x2="617.53" y2="31.75"/><line class="cls-1" x1="484.49" y1="207.17" x2="483.52" y2="31.75"/><line class="cls-1" x1="550.48" y1="207.17" x2="550.48" y2="31.75"/><line class="cls-1" x1="683.45" y1="207.17" x2="684.42" y2="31.75"/><line class="cls-1" x1="748.96" y1="207.17" x2="748.96" y2="31.75"/><ellipse class="cls-3" cx="192.46" cy="118.01" rx="7.76" ry="8"/><ellipse class="cls-3" cx="322.52" cy="118.01" rx="7.76" ry="8"/><ellipse class="cls-3" cx="451.95" cy="118.01" rx="7.76" ry="8"/><ellipse class="cls-3" cx="780.37" cy="82.48" rx="7.76" ry="8"/><ellipse class="cls-3" cx="780.37" cy="152.8" rx="7.76" ry="8"/><ellipse class="cls-3" cx="583.97" cy="118.01" rx="7.76" ry="8"/></g><g id="Notas"><g id="E"><text class="cls-4" transform="translate(0.68 37.51) scale(0.97 1)">E</text><text class="cls-5" transform="translate(54.34 37.51)">F</text><text class="cls-6" transform="translate(94.08 37.51)">F#Gb</text><text class="cls-7" transform="translate(180.21 37.51)">G</text><text class="cls-8" transform="translate(225.57 37.51)">G#Ab</text><text class="cls-9" transform="translate(313.76 37.51)">A</text><text class="cls-10" transform="translate(354.82 37.51)">A#Bb</text><text class="cls-11" transform="translate(442.06 37.51)">B</text><text class="cls-12" transform="translate(508.2 37.51)">C</text><text class="cls-13" transform="translate(549.05 37.51)">C#Db</text><text class="cls-14" transform="translate(642.51 37.51)">D</text><text class="cls-15" transform="translate(681.66 37.51)">D#Eb</text><text class="cls-4" transform="translate(772.11 37.51)">E</text></g><g id="A"><text class="cls-9" transform="translate(1.13 177.51)">A</text><text class="cls-10" transform="translate(30.63 177.51)">A#Bb</text><text class="cls-11" transform="translate(116.29 177.51)">B</text><text class="cls-12" transform="translate(180.57 177.51)">C</text><text class="cls-13" transform="translate(223.89 177.51)">C#Db</text><text class="cls-14" transform="translate(310.55 177.51)">D</text><text class="cls-15" transform="translate(351.5 177.51)">D#Eb</text><text class="cls-4" transform="translate(441.33 177.51)">E</text><text class="cls-5" transform="translate(507.44 177.51)">F</text><text class="cls-6" transform="translate(548.62 177.51)">F#Gb</text><text class="cls-7" transform="translate(641.98 177.51)">G</text><text class="cls-8" transform="translate(682.39 177.51)">G#Ab</text><text class="cls-9" transform="translate(772.83 177.51)">A</text></g><g id="D"><text class="cls-14" transform="translate(1.13 142.51)">D</text><text class="cls-15" transform="translate(30.53 142.51)">D#Eb</text><text class="cls-4" transform="translate(118.78 142.51)">E</text><text class="cls-5" transform="translate(183.01 142.51)">F</text><text class="cls-6" transform="translate(226.68 142.51)">F#Gb</text><text class="cls-7" transform="translate(313.24 142.51)">G</text><text class="cls-8" transform="translate(355.45 142.51)">G#Ab</text><text class="cls-9" transform="translate(445.27 142.51)">A</text><text class="cls-10" transform="translate(486.94 142.51)">A#Bb</text><text class="cls-11" transform="translate(574.04 142.51)">B</text><text class="cls-12" transform="translate(645.55 142.51)">C</text><text class="cls-13" transform="translate(683.93 142.51)">C#Db</text><text class="cls-14" transform="translate(772.83 142.51)">D</text></g><g id="G"><text class="cls-7" transform="translate(0.91 107.51)">G</text><text class="cls-8" transform="translate(31.56 107.51)">G#Ab</text><text class="cls-9" transform="translate(119.8 107.51)">A</text><text class="cls-10" transform="translate(159.6 107.51)">A#Bb</text><text class="cls-11" transform="translate(249.18 107.51)">B</text><text class="cls-12" transform="translate(313.89 107.51)">C</text><text class="cls-13" transform="translate(354.08 107.51)">C#Db</text><text class="cls-14" transform="translate(442.36 107.51)">D</text><text class="cls-15" transform="translate(483.92 107.51)">D#Eb</text><text class="cls-4" transform="translate(573.61 107.51)">E</text><text class="cls-5" transform="translate(645.08 107.51)">F</text><text class="cls-6" transform="translate(683.8 107.51)">F#Gb</text><text class="cls-7" transform="translate(772.6 107.51)">G</text></g><g id="B"><text class="cls-11" transform="translate(0.45 72.51)">B</text><text class="cls-12" transform="translate(54.43 72.51)">C</text><text class="cls-13" transform="translate(93.83 72.51)">C#Db</text><text class="cls-14" transform="translate(180.06 72.51)">D</text><text class="cls-15" transform="translate(224.15 72.51)">D#Eb</text><text class="cls-4" transform="translate(312.36 72.51)">E</text><text class="cls-5" transform="translate(377.85 72.51)">F</text><text class="cls-6" transform="translate(419.17 72.51)">F#Gb</text><text class="cls-7" transform="translate(507.16 72.51)">G</text><text class="cls-8" transform="translate(550.04 72.51)">G#Ab</text><text class="cls-9" transform="translate(645.04 72.51)">A</text><text class="cls-10" transform="translate(684.29 72.51)">A#Bb</text><text class="cls-11" transform="translate(772.15 72.51)">B</text></g><g id="E-2" data-name="E"><text class="cls-4" transform="translate(0.23 212.51)">E</text><text class="cls-5" transform="translate(54.16 212.51)">F</text><text class="cls-6" transform="translate(93.9 212.51)">F#Gb</text><text class="cls-7" transform="translate(180.03 212.51)">G</text><text class="cls-8" transform="translate(225.38 212.51)">G#Ab</text><text class="cls-9" transform="translate(313.58 212.51)">A</text><text class="cls-10" transform="translate(354.64 212.51)">A#Bb</text><text class="cls-11" transform="translate(441.87 212.51)">B</text><text class="cls-12" transform="translate(508.02 212.51)">C</text><text class="cls-13" transform="translate(548.87 212.51)">C#Db</text><text class="cls-14" transform="translate(642.32 212.51)">D</text><text class="cls-15" transform="translate(681.47 212.51)">D#Eb</text><text class="cls-4" transform="translate(771.92 212.51)">E</text></g><g id="N"><text class="cls-16" transform="translate(57.67 9.51) scale(1.17 1)">1</text><text class="cls-16" transform="translate(120.92 9.51) scale(1.17 1)">2</text><text class="cls-16" transform="translate(186.83 9.51) scale(1.17 1)">3</text><text class="cls-16" transform="translate(252.95 9.51) scale(1.17 1)">4</text><text class="cls-16" transform="translate(318.87 9.51) scale(1.17 1)">5</text><text class="cls-16" transform="translate(384.21 9.51) scale(1.17 1)">6</text><text class="cls-16" transform="translate(449.97 9.51) scale(1.17 1)">7</text><text class="cls-16" transform="translate(516.03 9.51) scale(1.17 1)">8</text><text class="cls-16" transform="translate(581.49 9.51) scale(1.17 1)">9</text><text class="cls-16" transform="translate(640.15 9.51) scale(1.17 1)">10</text><text class="cls-16" transform="translate(708.73 9.51) scale(1.17 1)">11</text><text class="cls-16" transform="translate(771.98 9.51) scale(1.17 1)">12</text></g></g></svg>